<svg xmlns="http://www.w3.org/2000/svg" viewBox="0 0 773.7 343.06"><defs><style>.cls-1{fill:#ec1c24;}.cls-2{fill:#fff;}</style></defs><title>bookhive_logo</title><g id="Layer_2" data-name="Layer 2"><g id="Layer_1-2" data-name="Layer 1"><polygon class="cls-1" points="128.46 113.58 96.34 57.95 32.12 57.95 0 113.58 32.12 169.2 96.34 169.2 128.46 113.58"/><polygon class="cls-1" points="197.6 111.25 229.72 55.62 197.6 0 133.37 0 101.26 55.62 133.37 111.25 197.6 111.25"/><polygon class="cls-1" points="0 229.48 32.12 285.11 96.34 285.11 128.46 229.48 96.34 173.86 32.12 173.86 0 229.48"/><polygon class="cls-1" points="229.72 171.53 197.6 115.91 133.37 115.91 101.26 171.53 133.37 227.15 197.6 227.15 229.72 171.53"/><polygon class="cls-1" points="133.37 343.06 197.6 343.06 229.72 287.44 197.6 231.81 133.37 231.81 101.26 287.44 133.37 343.06"/><rect class="cls-2" x="35.53" y="112.77" width="10.4" height="55.45"/><rect class="cls-2" x="47.07" y="117.87" width="9.44" height="50.35"/><rect class="cls-2" x="57.51" y="120.86" width="12.48" height="47.47"/><rect class="cls-2" x="40.73" y="274.47" width="53.01" height="8.65"/><rect class="cls-2" x="26.81" y="240.53" width="7.1" height="41.83" transform="translate(-67.77 17.22) rotate(-15.27)"/><rect class="cls-2" x="43.6" y="266.04" width="44.58" height="6.65"/><rect class="cls-2" x="135.6" y="168.22" width="10.98" height="57.6"/><rect class="cls-2" x="148.08" y="158.52" width="10.98" height="67.3"/><rect class="cls-2" x="160.83" y="158.52" width="10.98" height="67.3"/><rect class="cls-2" x="173.42" y="170.42" width="10.98" height="55.4"/><rect class="cls-2" x="176.31" y="193.41" width="56.1" height="10.98" transform="translate(-66.97 286.66) rotate(-62.15)"/><path class="cls-2" d="M252.21,78.68a116.35,116.35,0,0,1,21.94-1.93c12,0,19.73,2.07,25.53,6.76,4.83,3.59,7.73,9.11,7.73,16.42,0,9-5.93,16.84-15.73,20.42v.28c8.83,2.21,19.18,9.52,19.18,23.32A25.07,25.07,0,0,1,303,162.59c-6.49,5.93-17,8.69-32.15,8.69a140.41,140.41,0,0,1-18.63-1.1Zm12,38.09h10.9c12.7,0,20.15-6.62,20.15-15.59C295.26,90.27,287,86,274.84,86a51.5,51.5,0,0,0-10.63.83Zm0,44.57a64.15,64.15,0,0,0,10.07.55c12.42,0,23.87-4.55,23.87-18.08,0-12.7-10.9-17.94-24-17.94h-9.94Z"/><path class="cls-2" d="M387.58,136.5c0,24.7-17.11,35.47-33.26,35.47-18.08,0-32-13.25-32-34.36,0-22.36,14.63-35.47,33.12-35.47C374.61,102.14,387.58,116.08,387.58,136.5Zm-53,.69c0,14.63,8.42,25.67,20.29,25.67,11.59,0,20.29-10.9,20.29-25.94,0-11.32-5.66-25.67-20-25.67S334.59,124.5,334.59,137.19Z"/><path class="cls-2" d="M463.34,136.5c0,24.7-17.11,35.47-33.26,35.47-18.08,0-32-13.25-32-34.36,0-22.36,14.63-35.47,33.12-35.47C450.37,102.14,463.34,116.08,463.34,136.5Zm-53,.69c0,14.63,8.42,25.67,20.29,25.67,11.59,0,20.29-10.9,20.29-25.94,0-11.32-5.66-25.67-20-25.67S410.35,124.5,410.35,137.19Z"/><path class="cls-2" d="M490.67,134.3h.28c1.66-2.35,4-5.24,5.93-7.59l19.6-23H531.1l-25.81,27.46,29.39,39.33H519.92l-23-32-6.21,6.9v25.12h-12v-98h12Z"/><path class="cls-1" d="M545.73,72.47h12.14v41.68h.28a22.53,22.53,0,0,1,8.69-8.56,25,25,0,0,1,12.42-3.45c9,0,23.32,5.52,23.32,28.57v39.74H590.44V132.09c0-10.76-4-19.87-15.46-19.87-7.87,0-14.08,5.52-16.28,12.14a14.71,14.71,0,0,0-.83,5.8v40.3H545.73Z"/><path class="cls-1" d="M635.84,84.89c.14,4.14-2.9,7.45-7.73,7.45a7.22,7.22,0,0,1-7.31-7.45,7.4,7.4,0,0,1,7.59-7.59A7.21,7.21,0,0,1,635.84,84.89Zm-13.52,85.56V103.66h12.14v66.79Z"/><path class="cls-1" d="M659.3,103.66l13.11,37.54a171.7,171.7,0,0,1,5.38,17.11h.41c1.52-5.52,3.45-11,5.66-17.11l13-37.54h12.7l-26.22,66.79H671.72l-25.39-66.79Z"/><path class="cls-1" d="M726.37,139.26c.28,16.42,10.76,23.18,22.91,23.18,8.69,0,13.94-1.52,18.49-3.45l2.07,8.69c-4.28,1.93-11.59,4.14-22.22,4.14-20.56,0-32.84-13.52-32.84-33.67s11.87-36,31.33-36c21.8,0,27.6,19.18,27.6,31.46a45.68,45.68,0,0,1-.41,5.66Zm35.6-8.69c.14-7.73-3.17-19.73-16.84-19.73-12.28,0-17.66,11.32-18.63,19.73Z"/><path class="cls-2" d="M252.21,178.41h12v44.85h.41c2.48-3.59,5-6.9,7.31-9.94l28.43-34.91h14.9L281.6,217.88l36.29,53.54H303.68L273,225.75,264.21,236v35.47h-12Z"/><path class="cls-2" d="M333.35,240.24c.28,16.42,10.76,23.18,22.91,23.18,8.69,0,13.94-1.52,18.49-3.45l2.07,8.69c-4.28,1.93-11.59,4.14-22.22,4.14-20.56,0-32.84-13.52-32.84-33.67s11.87-36,31.33-36c21.8,0,27.6,19.18,27.6,31.46a45.65,45.65,0,0,1-.41,5.66Zm35.6-8.69c.14-7.73-3.17-19.73-16.84-19.73-12.28,0-17.66,11.32-18.63,19.73Z"/><path class="cls-2" d="M395.72,222.71c0-6.9-.14-12.56-.55-18.08h10.76l.69,11h.28c3.31-6.35,11-12.56,22.08-12.56,9.25,0,23.6,5.52,23.6,28.43v39.88H440.44v-38.5c0-10.76-4-19.73-15.46-19.73a17.25,17.25,0,0,0-16.28,12.42,17.47,17.47,0,0,0-.83,5.66v40.16H395.72Z"/><path class="cls-2" d="M474.94,204.63l14.63,39.47c1.52,4.42,3.17,9.66,4.28,13.66h.28c1.24-4,2.62-9.11,4.28-13.94l13.25-39.19h12.83l-18.22,47.61c-8.69,22.91-14.63,34.64-22.91,41.81a32.91,32.91,0,0,1-14.9,7.87l-3-10.21A32.13,32.13,0,0,0,476,285.78a36.81,36.81,0,0,0,10.21-13.52,8.71,8.71,0,0,0,1-2.9,10.6,10.6,0,0,0-.83-3.17l-24.7-61.55Z"/><path class="cls-2" d="M572,271.43,571,263h-.41a24.88,24.88,0,0,1-20.42,9.94c-13.52,0-20.42-9.52-20.42-19.18,0-16.15,14.35-25,40.16-24.84v-1.38c0-5.52-1.52-15.46-15.18-15.46a33.28,33.28,0,0,0-17.39,5l-2.76-8c5.52-3.59,13.52-5.93,21.94-5.93,20.42,0,25.39,13.94,25.39,27.32v25a94,94,0,0,0,1.1,16Zm-1.79-34.09c-13.25-.28-28.29,2.07-28.29,15,0,7.87,5.24,11.59,11.45,11.59a16.62,16.62,0,0,0,16.15-11.18,12.68,12.68,0,0,0,.69-3.86Z"/></g></g></svg>