<svg xmlns="http://www.w3.org/2000/svg" viewBox="0 0 457.35 410.81"><defs><style>.cls-1{fill:#ec1c24;}.cls-2{fill:#fff;}.cls-3{fill:none;stroke:#ec1c24;stroke-miterlimit:10;stroke-width:12px;}</style></defs><title>faviconr</title><g id="Layer_2" data-name="Layer 2"><g id="Layer_1-2" data-name="Layer 1"><polygon class="cls-1" points="229.9 150.76 197.78 95.14 133.55 95.14 101.44 150.76 133.55 206.39 197.78 206.39 229.9 150.76"/><polygon class="cls-1" points="299.04 148.43 331.16 92.81 299.04 37.19 234.81 37.19 202.7 92.81 234.81 148.43 299.04 148.43"/><polygon class="cls-1" points="101.44 266.67 133.55 322.29 197.78 322.29 229.9 266.67 197.78 211.04 133.55 211.04 101.44 266.67"/><polygon class="cls-1" points="331.16 208.72 299.04 153.09 234.81 153.09 202.7 208.72 234.81 264.34 299.04 264.34 331.16 208.72"/><polygon class="cls-1" points="234.81 380.25 299.04 380.25 331.16 324.62 299.04 269 234.81 269 202.7 324.62 234.81 380.25"/><rect class="cls-2" x="136.97" y="149.95" width="10.4" height="55.45"/><rect class="cls-2" x="148.51" y="155.05" width="9.44" height="50.35"/><rect class="cls-2" x="158.95" y="158.05" width="12.48" height="47.47"/><rect class="cls-2" x="142.17" y="311.65" width="53.01" height="8.65"/><rect class="cls-2" x="128.25" y="277.71" width="7.1" height="41.83" transform="translate(-73.98 45.24) rotate(-15.27)"/><rect class="cls-2" x="145.04" y="303.22" width="44.58" height="6.65"/><rect class="cls-2" x="237.04" y="205.41" width="10.98" height="57.6"/><rect class="cls-2" x="249.52" y="195.71" width="10.98" height="67.3"/><rect class="cls-2" x="262.27" y="195.71" width="10.98" height="67.3"/><rect class="cls-2" x="274.86" y="207.61" width="10.98" height="55.4"/><rect class="cls-2" x="277.75" y="230.59" width="56.1" height="10.98" transform="translate(-45.8 396.16) rotate(-62.15)"/><path class="cls-3" d="M357.95,380.32,444.79,229.9a49,49,0,0,0,0-49L357.95,30.5A49,49,0,0,0,315.52,6H141.83A49,49,0,0,0,99.41,30.5L12.56,180.91a49,49,0,0,0,0,49L99.41,380.32a49,49,0,0,0,42.43,24.5H315.52A49,49,0,0,0,357.95,380.32Z"/><path class="cls-2" d="M244.67,53.26a101.49,101.49,0,0,1,19.14-1.68c10.47,0,17.21,1.81,22.27,5.9,4.21,3.13,6.74,7.95,6.74,14.33,0,7.82-5.18,14.69-13.72,17.82v.24c7.7,1.93,16.73,8.31,16.73,20.34A21.87,21.87,0,0,1,289,126.45c-5.66,5.18-14.81,7.58-28,7.58a122.48,122.48,0,0,1-16.25-1Zm10.47,33.22h9.51c11.08,0,17.58-5.78,17.58-13.6,0-9.51-7.22-13.24-17.82-13.24a44.93,44.93,0,0,0-9.27.72Zm0,38.88a56,56,0,0,0,8.79.48c10.83,0,20.83-4,20.83-15.77,0-11.07-9.51-15.65-20.95-15.65h-8.67Z"/><path class="cls-2" d="M238,283.69h10.57v39.47H249c2.19-3.16,4.37-6.07,6.44-8.74l25-30.73h13.12l-29.63,34.73,31.94,47.12H283.32l-27-40.2-7.77,9v31.21H238Z"/></g></g></svg>